# AST/ASF file generated using VICON BodyLanguage
# -----------------------------------------------
:version 1.10
:name VICON
:units
  mass 1.0
  length 0.45
  angle deg
:documentation
   .ast/.asf automatically generated from VICON data using
   VICON BodyBuilder and BodyLanguage model FoxedUp or BRILLIANT.MOD
:root
   order TX TY TZ RX RY RZ
   axis XYZ
   position 0 0 0  
   orientation 0 0 0 
:bonedata
  begin
     id 1 
     name lhipjoint
     direction 0.541323 -0.757556 0.364798 
     length 2.47576 
     axis 0 0 0  XYZ
  end
  begin
     id 2 
     name lfemur
     direction 0.34202 -0.939693 0  
     length 7.46493  
     axis 0 0 20  XYZ
    dof rx ry rz
    limits (-160.0 20.0)
           (-70.0 70.0)
           (-60.0 70.0)
  end
  begin
     id 3 
     name ltibia
     direction 0.34202 -0.939693 0   
     length 7.73805   
     axis 0 0 20   XYZ
    dof rx
    limits (-10.0 170.0)
  end
  begin
     id 4 
     name lfoot
     direction 0.107174 -0.294458 0.949636   
     length 2.25864   
     axis -90 7.62852e-016 20   XYZ
    dof rx rz
    limits (-45.0 90.0)
           (-70.0 20.0)
  end
  begin
     id 5 
     name ltoes
     direction 1.53606e-011 -4.21934e-011 1   
     length 1.12451   
     axis -90 7.62852e-016 20   XYZ
    dof rx
    limits (-90.0 20.0)
  end
  begin
     id 6 
     name rhipjoint
     direction -0.524745 -0.766967 0.36933   
     length 2.44538  
     axis 0 0 0  XYZ 
  end
  begin
     id 7 
     name rfemur
     direction -0.34202 -0.939693 0   
     length 7.61604   
     axis 0 0 -20   XYZ
    dof rx ry rz
    limits (-160.0 20.0)
           (-70.0 70.0)
           (-70.0 60.0)
  end
  begin
     id 8 
     name rtibia
     direction -0.34202 -0.939693 0   
     length 7.61056   
     axis 0 0 -20   XYZ
    dof rx
    limits (-10.0 170.0)
 end
 begin
     id 9 
     name rfoot
     direction -0.12616 -0.346623 0.929482   
     length 2.46372  
     axis -90 -7.62852e-016 -20   XYZ
    dof rx rz
    limits (-45.0 90.0)
           (-20.0 70.0)
  end
  begin
     id 10 
     name rtoes
     direction -1.53531e-011 -4.22004e-011 1   
     length 1.21611   
     axis -90 -7.62852e-016 -20   XYZ
    dof rx
    limits (-90.0 20.0)
  end
  begin
     id 11 
     name lowerback
     direction -0.000778023 0.997293 -0.0735223   
     length 2.06139   
     axis 0 0 0   XYZ
    dof rx ry rz
    limits (-20.0 45.0)
           (-30.0 30.0)
           (-30.0 30.0)
  end
  begin
     id 12 
     name upperback
     direction 0.0222598 0.999722 -0.0078355   
     length 2.06383   
     axis 0 0 0   XYZ
    dof rx ry rz
    limits (-20.0 45.0)
           (-30.0 30.0)
           (-30.0 30.0)
  end
  begin
     id 13 
     name thorax
     direction 0.0219654 0.999405 0.0265994   
     length 2.07163   
     axis 0 0 0   XYZ
    dof rx ry rz
    limits (-20.0 45.0)
           (-30.0 30.0)
           (-30.0 30.0)
  end
  begin
     id 14 
     name lowerneck
     direction 0.0213282 0.988147 0.15202   
     length 1.75969   
     axis 0 0 0   XYZ
    dof rx ry rz
    limits (-20.0 45.0)
           (-30.0 30.0)
           (-30.0 30.0)
  end
  begin
     id 15 
     name upperneck
     direction -0.0546456 0.982624 -0.177379   
     length 1.79244   
     axis 0 0 0   XYZ
    dof rx ry rz
    limits (-20.0 45.0)
           (-30.0 30.0)
           (-30.0 30.0)
  end
  begin
     id 16
     name head
     direction -0.0199987 0.996855 -0.076686  
     length 1.80555  
     axis 0 0 0   XYZ
    dof rx ry rz
    limits (-20.0 45.0)
           (-30.0 30.0)
           (-30.0 30.0)
  end
  begin
     id 17 
     name lclavicle
     direction 0.929565 0.363219 -0.063096  
     length 3.55722  
     axis 0 0 0   XYZ
    dof ry rz
    limits (-20.0 10.0)
           (0.0 20.0)
  end
  begin
     id 18 
     name lhumerus
     direction 1 -4.48993e-011 -2.36203e-027   
     length 4.92785   
     axis 180 -30 -90   XYZ
    dof rx ry rz
    limits (-60.0 90.0)
           (-90.0 90.0)
           (-90.0 90.0)
  end
  begin
     id 19
     name lradius
     direction 1 -4.48947e-011 2.02997e-027   
     length 3.44052   
     axis 180 -30 -90   XYZ
    dof rx
    limits (-10.0 170.0)
  end
  begin
     id 20
     name lwrist
     direction 1 -4.48962e-011 1.45991e-027   
     length 1.72026   
     axis 1.49639e-024 90 90   XYZ
    dof ry
    limits (-180.0 0.0)
 end
  begin
     id 21 
     name lhand
     direction 1 -4.48984e-011 2.91906e-027   
     length 0.654326   
     axis -1.863e-015 90 90   XYZ
    dof rx rz
    limits (-90.0 90.0)
           (-45.0 45.0)
  end
  begin
     id 22 
     name lfingers
     direction 1 -4.48961e-011 5.83968e-027   
     length 0.527534   
     axis -3.72598e-015 90 90   XYZ
    dof rx
    limits (0.0 90.0)
  end
  begin
     id 23
     name lthumb
     direction 0.707107 -6.34963e-011 0.707107   
     length 0.757437   
     axis -90 45 -6.68868e-015   XYZ
    dof rx rz
    limits (-45.0 45.0)
           (-45.0 45.0)
  end
  begin
     id 24 
     name rclavicle
     direction -0.902944 0.422599 -0.0781198   
     length 3.54432  
     axis 0 0 0   XYZ 
    dof ry rz
    limits (-10.0 20.0)
           (-20.0 0.0)
  end
  begin
     id 25 
     name rhumerus
     direction -1 -4.48953e-011 -4.75835e-028  
     length 5.09181   
     axis 180 30 90   XYZ
    dof rx ry rz
    limits (-90.0 60.0)
           (-90.0 90.0)
           (-90.0 90.0)
  end
  begin
     id 26 
     name rradius
     direction -1 -4.48986e-011 -3.25889e-027   
     length 3.49865   
     axis 180 30 90   XYZ
    dof rx
    limits (-10.0 170.0)
  end
  begin
     id 27 
     name rwrist
     direction -1 -4.48963e-011 1.45989e-027   
     length 1.74933   
     axis 1.49639e-024 -90 -90   XYZ
    dof ry
    limits (-180.0 0.0)
  end
  begin
     id 28
     name rhand
     direction -1 -4.49003e-011 2.91844e-027   
     length 0.66641   
     axis -1.863e-015 -90 -90   XYZ
    dof rx rz
    limits (-90.0 90.0)
           (-45.0 45.0)
  end
  begin
     id 29
     name rfingers
     direction -1 -4.48973e-011 5.83886e-027   
     length 0.537277   
     axis -3.72598e-015 -90 -90   XYZ
    dof rx
    limits (0.0 90.0)
  end
  begin
     id 30
     name rthumb
     direction -0.707107 -6.34976e-011 0.707107   
     length 0.771425   
     axis -90 -45 6.68868e-015   XYZ
    dof rx rz
    limits (-45.0 45.0)
           (-45.0 45.0)
  end
:hierarchy
  begin
    root lhipjoint rhipjoint lowerback
    lhipjoint lfemur
    lfemur ltibia
    ltibia lfoot
    lfoot ltoes
    rhipjoint rfemur
    rfemur rtibia
    rtibia rfoot
    rfoot rtoes
    lowerback upperback
    upperback thorax
    thorax lowerneck lclavicle rclavicle
    lowerneck upperneck
    upperneck head
    lclavicle lhumerus
    lhumerus lradius
    lradius lwrist
    lwrist lhand lthumb
    lhand lfingers
    rclavicle rhumerus
    rhumerus rradius
    rradius rwrist
    rwrist rhand rthumb
    rhand rfingers
  end

#!OML:ASF H:\LiuWeirdWalks\Patient Classification 1\Patient 1\Session 1\male.ASF
:FULLY-SPECIFIED
:DEGREES
244
root 0.2089 18.0905 -26.7091 5.86232 5.87292 6.66344
lowerback 12.7996 0.214707 12.8776
upperback 0.534104 3.30633 14.8848
thorax -6.96931 1.51624 8.55209
lowerneck -33.1698 1.42129 14.2024
upperneck 23.082 0.291625 -17.5492
head 13.3118 -1.14762 -9.60656
rclavicle -1.59028e-014 -1.20861e-013
rhumerus -26.9779 -38.4854 -36.543
rradius 38.9445
rwrist -31.0943
rhand -22.4589 -10.0476
rfingers 7.12502
rthumb 3.96565 -39.9905
lclavicle -1.59028e-014 -1.20861e-013
lhumerus -41.022 -30.0603 108.933
lradius 51.9633
lwrist 7.26149
lhand -9.77169 -6.44066
lfingers 7.12502
lthumb 16.2035 22.9022
rfemur -2.95691 -2.18375 11.356
rtibia 22.7616
rfoot -16.4771 -26.2433
rtoes -4.02997
lfemur -26.2662 -1.59019 -24.2717
ltibia 31.3566
lfoot -5.70539 10.1386
ltoes -18.4447
245
root 0.209132 18.0925 -26.6514 5.93746 5.65162 6.69643
lowerback 12.8304 0.272454 12.8973
upperback 0.537816 3.38851 14.8752
thorax -6.98549 1.55361 8.51382
lowerneck -33.0895 1.45246 14.1941
upperneck 22.9815 0.375928 -17.6591
head 13.2757 -1.12665 -9.62594
rclavicle 1.74931e-014 7.31528e-014
rhumerus -26.3704 -38.085 -37.0638
rradius 39.2541
rwrist -30.9275
rhand -22.3571 -9.82279
rfingers 7.12502
rthumb 4.06398 -39.7638
lclavicle 1.74931e-014 7.31528e-014
lhumerus -41.3726 -29.9727 109.015
lradius 51.6504
lwrist 7.01147
lhand -9.60337 -6.6266
lfingers 7.12502
lthumb 16.3656 22.7029
rfemur -2.73195 -2.10965 11.3063
rtibia 22.4498
rfoot -16.3637 -26.1681
rtoes -4.27291
lfemur -26.3017 -1.50862 -24.5415
ltibia 29.8142
lfoot -5.54905 10.783
ltoes -18.378
246
root 0.210515 18.0946 -26.5927 6.02308 5.39857 6.7112
lowerback 12.8604 0.340082 12.9313
upperback 0.530477 3.48658 14.8541
thorax -7.01272 1.59726 8.45125
lowerneck -32.9573 1.4772 14.2166
upperneck 22.8683 0.439711 -17.7654
head 13.2201 -1.11001 -9.64874
rclavicle -2.38542e-015 0
rhumerus -25.8179 -37.6264 -37.5792
rradius 39.562
rwrist -30.7505
rhand -22.1976 -9.58137
rfingers 7.12502
rthumb 4.218 -39.5194
lclavicle -2.38542e-015 0
lhumerus -41.7479 -29.9009 109.096
lradius 51.3381
lwrist 6.83217
lhand -9.37339 -6.71328
lfingers 7.12502
lthumb 16.587 22.5979
rfemur -2.52013 -2.02319 11.2667
rtibia 22.1268
rfoot -16.2397 -26.0699
rtoes -4.52453
lfemur -26.3464 -1.36276 -24.8064
ltibia 28.2769
lfoot -5.39878 11.3276
ltoes -18.2325
247
root 0.212904 18.0965 -26.5324 6.10324 5.12308 6.70508
lowerback 12.8943 0.409933 12.971
upperback 0.525574 3.58884 14.8366
thorax -7.03939 1.64271 8.38889
lowerneck -32.8148 1.50435 14.2571
upperneck 22.7761 0.501372 -17.8731
head 13.1709 -1.09175 -9.6775
rclavicle -8.74653e-015 -1.01778e-013
rhumerus -25.2625 -37.1615 -38.0985
rradius 39.8345
rwrist -30.4992
rhand -22.0505 -9.33676
rfingers 7.12502
rthumb 4.36001 -39.2719
lclavicle -8.74653e-015 -1.01778e-013
lhumerus -42.0977 -29.8255 109.173
lradius 51.0128
lwrist 6.78491
lhand -9.06307 -6.69673
lfingers 7.12502
lthumb 16.8857 22.5892
rfemur -2.29842 -1.92155 11.2423
rtibia 21.791
rfoot -16.1233 -25.9551
rtoes -4.77349
lfemur -26.3884 -1.1481 -25.0661
ltibia 26.7556
lfoot -5.24437 11.7436
ltoes -18.0312
248
root 0.216117 18.098 -26.4705 6.18097 4.83623 6.68779
lowerback 12.929 0.571321 13.1292
upperback 0.523425 3.81521 14.6753
thorax -7.04921 1.73915 8.06447
lowerneck -32.9186 1.50108 14.5128
upperneck 22.7894 0.371824 -17.936
head 13.1675 -1.13653 -9.78057
rclavicle 1.59028e-015 5.08889e-014
rhumerus -25.0914 -37.0323 -38.5056
rradius 40.1312
rwrist -30.1495
rhand -21.8122 -9.06586
rfingers 7.12502
rthumb 4.59007 -38.9961
lclavicle 1.59028e-015 5.08889e-014
lhumerus -42.4864 -30.2369 109.188
lradius 50.6788
lwrist 6.82915
lhand -8.74736 -6.66486
lfingers 7.12502
lthumb 17.1896 22.5948
rfemur -2.06556 -1.8239 11.2229
rtibia 21.4423
rfoot -16.0117 -25.8185
rtoes -5.03086
lfemur -26.429 -0.871739 -25.3311
ltibia 25.2578
lfoot -5.08175 12.0042
ltoes -17.8102
249
root 0.220193 18.099 -26.4069 6.2634 4.53906 6.67011
lowerback 12.934 0.700242 13.2462
upperback 0.565922 3.98038 14.5645
thorax -6.99367 1.81107 7.83369
lowerneck -33.0942 1.54142 14.6883
upperneck 22.8237 0.334288 -17.9872
head 13.2064 -1.14761 -9.85448
rclavicle 1.03368e-014 2.8625e-014
rhumerus -24.6884 -36.8384 -39.0226
rradius 40.3753
rwrist -29.7113
rhand -21.5841 -8.78559
rfingers 7.12502
rthumb 4.81036 -38.711
lclavicle 1.03368e-014 2.8625e-014
lhumerus -42.7316 -30.4721 109.161
lradius 50.3189
lwrist 6.81711
lhand -8.37778 -6.61319
lfingers 7.12502
lthumb 17.5453 22.6151
rfemur -1.82817 -1.74653 11.1927
rtibia 21.0831
rfoot -15.907 -25.6443
rtoes -5.29991
lfemur -26.4716 -0.540549 -25.612
ltibia 23.7869
lfoot -4.9248 12.1126
ltoes -17.5623
250
root 0.224541 18.0994 -26.3416 6.33759 4.24756 6.64091
lowerback 12.9406 0.820684 13.3477
upperback 0.607226 4.13371 14.4634
thorax -6.94053 1.87831 7.62628
lowerneck -33.2379 1.58478 14.8514
upperneck 22.8497 0.302472 -18.0112
head 13.2367 -1.15272 -9.9104
rclavicle -1.43125e-014 -1.08139e-013
rhumerus -24.2992 -36.5877 -39.5313
rradius 40.61
rwrist -29.2316
rhand -21.295 -8.48845
rfingers 7.12502
rthumb 5.08955 -38.4073
lclavicle -1.43125e-014 -1.08139e-013
lhumerus -42.962 -30.6743 109.132
lradius 49.9502
lwrist 6.80317
lhand -7.91679 -6.54124
lfingers 7.12502
lthumb 17.9889 22.6468
rfemur -1.56824 -1.67355 11.1737
rtibia 20.7121
rfoot -15.8002 -25.465
rtoes -5.58455
lfemur -26.5066 -0.177055 -25.8883
ltibia 22.3501
lfoot -4.76019 12.066
ltoes -17.3742
251
root 0.229298 18.0994 -26.2744 6.41581 3.95727 6.60935
lowerback 12.9344 0.89743 13.3884
upperback 0.638346 4.22509 14.4196
thorax -6.89799 1.91952 7.53314
lowerneck -33.2091 1.63651 14.9224
upperneck 22.8003 0.341297 -18.0125
head 13.2195 -1.12908 -9.91052
rclavicle 7.15625e-015 5.08889e-014
rhumerus -23.791 -36.1481 -40.0761
rradius 40.8107
rwrist -28.7201
rhand -20.9891 -8.17134
rfingers 7.12502
rthumb 5.38488 -38.0829
lclavicle 7.15625e-015 5.08889e-014
lhumerus -43.1716 -30.6575 109.126
lradius 49.5625
lwrist 6.71942
lhand -7.42584 -6.45006
lfingers 7.12502
lthumb 18.4612 22.6939
rfemur -1.29918 -1.59927 11.1545
rtibia 20.3286
rfoot -15.682 -25.2843
rtoes -5.87662
lfemur -26.5445 0.198056 -26.1634
ltibia 20.9542
lfoot -4.57296 11.9006
ltoes -17.2214
252
root 0.234614 18.0991 -26.2053 6.48991 3.6778 6.574
lowerback 12.9167 0.914235 13.3627
upperback 0.667824 4.23262 14.4523
thorax -6.85959 1.92505 7.58333
lowerneck -33.0497 1.68689 14.8529
upperneck 22.7415 0.462932 -17.9948
head 13.1926 -1.07577 -9.85502
rclavicle -1.43125e-014 -7.31528e-014
rhumerus -23.1137 -35.4762 -40.665
rradius 40.975
rwrist -28.2061
rhand -20.6794 -7.84556
rfingers 7.12502
rthumb 5.68386 -37.7493
lclavicle -1.43125e-014 -7.31528e-014
lhumerus -43.334 -30.3526 109.137
lradius 49.153
lwrist 6.54607
lhand -6.8184 -6.32362
lfingers 7.12502
lthumb 19.0455 22.7639
rfemur -1.00709 -1.53203 11.1374
rtibia 19.9265
rfoot -15.5508 -25.1055
rtoes -6.17367
lfemur -26.5765 0.550142 -26.4256
ltibia 19.6136
lfoot -4.36685 11.6421
ltoes -17.0922
253
root 0.241098 18.0987 -26.1339 6.56228 3.39883 6.54039
lowerback 12.8827 0.887192 13.2899
upperback 0.675271 4.18074 14.5325
thorax -6.84211 1.90433 7.72804
lowerneck -32.7016 1.73009 14.7079
upperneck 22.6378 0.634271 -17.9749
head 13.1229 -1.00269 -9.76249
rclavicle -1.35174e-014 -1.24042e-013
rhumerus -22.3796 -34.6044 -41.2495
rradius 41.1125
rwrist -27.6736
rhand -20.3907 -7.52204
rfingers 7.12502
rthumb 5.96267 -37.4181
lclavicle -1.35174e-014 -1.24042e-013
lhumerus -43.5136 -29.844 109.185
lradius 48.7292
lwrist 6.34481
lhand -6.22905 -6.1829
lfingers 7.12502
lthumb 19.6122 22.8479
rfemur -0.696349 -1.47112 11.1121
rtibia 19.5065
rfoot -15.4139 -24.9231
rtoes -6.46946
lfemur -26.6057 0.854176 -26.6716
ltibia 18.3431
lfoot -4.12023 11.3508
ltoes -17.1163
